<?xml version="1.0"?>
<svg xmlns="http://www.w3.org/2000/svg" height="512px" viewBox="-5 0 512 512.002" width="512px" class=""><g><path d="m485.246094 172.015625h-83.996094c-4.144531 0-7.5 3.359375-7.5 7.5s3.355469 7.5 7.5 7.5h83.996094c1.273437 0 2.308594 1.035156 2.308594 2.3125v20.582031h-64.386719c-4.144531 0-7.5 3.359375-7.5 7.5v115.886719c0 4.144531 3.355469 7.5 7.5 7.5h64.386719v20.585937c0 1.273438-1.035157 2.3125-2.308594 2.3125h-46.351563c-14.546875-12.128906-33.242187-19.4375-53.621093-19.4375-10.722657 0-20.96875 2.042969-30.402344 5.726563v-24.78125c0-3.574219-.21875-7.097656-.632813-10.5625 13.539063-8.429687 21.808594-23.136719 21.808594-39.285156 0-22.984375-16.832031-42.105469-38.816406-45.699219v-42.640625h28.945312c4.144531 0 7.5-3.359375 7.5-7.5s-3.355469-7.5-7.5-7.5h-59.519531c.496094-2.171875.769531-4.429687.769531-6.75 0-10.789063-5.808593-20.640625-14.875-26 3.378907-13.03125 5.585938-29.390625 3.957031-48.378906-2.082031-24.261719-19.75-43.8125-43.351562-48.398438-3.382812-7.84375-8.082031-15.488281-14.277344-22.058593-12.605468-13.367188-29.683594-20.429688-49.398437-20.429688h-99.230469c-8.511719 0-15.691406 6.085938-17.078125 14.46875-1.710937 10.367188-3.523437 26.851562-1.960937 44.683594-7.929688 8.742187-12.820313 19.921875-13.835938 31.734375-1.648438 19.234375.640625 35.773437 4.09375 48.886719-8.644531 5.476562-14.023438 15.015624-14.023438 25.492187 0 16.648437 13.546876 30.195313 30.199219 30.195313 1.746094 0 3.492188-.15625 5.207031-.453126l.410157 7.785157c.625 11.957031 3.460937 23.292969 8.089843 33.625h-2.566406c-7.777344 0-15.320312 1.007812-22.511718 2.894531-.339844.070312-.671876.160156-.988282.269531-37.585937 10.332031-65.285156 44.800781-65.285156 85.625v169.484375c0 9.542969 7.765625 17.3125 17.3125 17.3125 4.140625 0 7.5-3.359375 7.5-7.503906 0-4.140625-3.359375-7.5-7.5-7.5-1.273438 0-2.3125-1.035156-2.3125-2.308594v-80.683594h51.484375v26.242188c0 4.140625 3.359375 7.5 7.5 7.5 4.144531 0 7.503906-3.359375 7.503906-7.5v-80.65625c0-4.140625-3.359375-7.5-7.503906-7.5-4.140625 0-7.5 3.359375-7.5 7.5v39.414062h-51.484375v-73.800781c0-31.234375 19.515625-57.976562 46.984375-68.726562 7.949219 36.683593 29.253906 67.070312 62.03125 88.257812 26.476563 17.117188 50.910156 22.1875 51.9375 22.394531.492187.101563.988281.148438 1.484375.148438.5 0 .996094-.046875 1.488281-.148438 1.027344-.207031 25.457031-5.277343 51.933594-22.394531 32.773437-21.1875 54.078125-51.574219 62.027344-88.257812 27.46875 10.75 46.984375 37.492187 46.984375 68.726562v32.460938c-15.117188 9.773437-26.914063 24.257812-33.261719 41.382812-.261719-.027343-.527344-.042969-.796875-.042969h-17.425781v-39.414062c0-4.140625-3.359375-7.5-7.5-7.5-4.144531 0-7.5 3.359375-7.5 7.5v144.902344c0 4.144531 3.355469 7.5 7.5 7.5 4.140625 0 7.5-3.355469 7.5-7.5v-90.488282h14.230469c-.785157 4.59375-1.214844 9.308594-1.214844 14.121094 0 28.503906 14.300781 53.710938 36.09375 68.875-4.113282.035156-7.4375 3.378906-7.4375 7.496094 0 4.144531 3.359375 7.503906 7.5 7.503906 5.734375 0 10.808594-2.8125 13.960937-7.117187 10.335938 4.5625 21.75 7.117187 33.753907 7.117187 46.25 0 83.871093-37.625 83.871093-83.875 0-18.472656-6.015625-35.558594-16.171875-49.433594h32.273438c9.542968 0 17.308594-7.765624 17.308594-17.3125v-172.054687c0-9.546875-7.765626-17.3125-17.308594-17.3125zm-163.015625 57.632813c-9.332031 1.523437-17.964844 5.867187-24.777344 12.496093-2.652344-1.003906-5.363281-1.882812-8.132813-2.636719-.179687-.054687-.359374-.105468-.546874-.148437-7.246094-1.914063-14.851563-2.941406-22.6875-2.941406h-2.566407c4.628907-10.335938 7.464844-21.671875 8.089844-33.628907l.410156-7.78125c1.707031.296876 3.445313.453126 5.207031.453126 8.113282 0 15.484376-3.21875 20.914063-8.445313h24.089844zm-223.988281-27.644532-1.515626-28.980468c2.34375-1.222657 4.464844-2.773438 6.351563-4.660157 6.144531-6.152343 9.386719-15.65625 9.371094-27.492187 0-.859375.40625-1.445313.746093-1.785156.289063-.292969.917969-.777344 1.875-.777344h12.183594c10.691406 3.480468 22.785156 5.242187 36.214844 5.242187h27.746094c.003906 0 .007812.003907.015625.003907.007812 0 .011719-.003907.019531-.003907 9.316406 0 18.234375-1.875 26.390625-5.253906.085937.003906.171875.011719.257813.011719h.023437 20.890625c.957031 0 1.585938.484375 1.875.777344.339844.339843.746094.925781.746094 1.785156-.011719 11.835937 3.230468 21.339844 9.371094 27.492187 2.140624 2.144531 4.589843 3.851563 7.316406 5.136719l-1.492188 28.503906c-2.207031 42.144532-36.992187 75.160156-79.195312 75.160156-42.199219 0-76.984375-33.015624-79.191406-75.160156zm194.183593-36.738281c0 8.378906-6.820312 15.195313-15.199219 15.195313-1.515624 0-2.992187-.21875-4.414062-.652344l.183594-3.496094c2.097656-.261719 4.007812-1.398438 5.234375-3.160156.410156-.59375 4.960937-7.273438 9.480469-18.871094 2.9375 2.8125 4.714843 6.753906 4.714843 10.984375zm-10.863281-73.09375c2.984375 34.746094-8.605469 59.921875-13.527344 68.859375-2.757812-.507812-4.941406-1.589844-6.617187-3.269531-3.222657-3.226563-4.992188-9.21875-4.980469-16.871094.003906-4.679687-1.820312-9.085937-5.132812-12.40625-3.058594-3.0625-7.046876-4.84375-11.328126-5.117187 10.34375-10.351563 17.390626-24.007813 19.285157-39.390626.273437-2.210937.484375-4.507812.617187-6.820312.304688-5.167969-.121094-11.117188-1.351562-17.371094 12.773437 5.617188 21.785156 17.824219 23.035156 32.386719zm-203.480469-1.359375c1.457031 3.878906 5.78125 5.839844 9.660157 4.382812 3.875-1.457031 5.835937-5.78125 4.378906-9.660156-9.707032-25.835937-6.132813-56.59375-4.148438-68.621094.183594-1.109374 1.140625-1.914062 2.277344-1.914062h99.230469c15.699219 0 28.648437 5.289062 38.484375 15.71875 12.6875 13.453125 17.675781 33.046875 16.941406 45.554688-.117188 1.996093-.296875 3.972656-.53125 5.867187-1.441406 11.6875-6.710938 22.101563-14.46875 30.09375.402344-3.597656.625-7.507813.527344-11.625-.40625-17.21875-6.535156-41.34375-33.425782-58.492187-3.496093-2.226563-8.128906-1.199219-10.359374 2.292968-2.226563 3.492188-1.199219 8.128906 2.292968 10.355469 34.503906 22.003906 26.871094 57.972656 23.289063 69.546875-3.136719 1.320312-6.425781 2.351562-9.824219 3.066406 2.46875-10.648437 2.671875-26.753906-10.332031-43.097656-2.582031-3.242188-7.300781-3.777344-10.542969-1.199219-3.238281 2.582031-3.777344 7.296875-1.195312 10.539063 11.488281 14.441406 8.519531 28.464844 6.109374 34.933594h-22.976562c-22.6875 0-40.648438-5.542969-53.382812-16.476563-3.144532-2.699219-7.878907-2.339844-10.578126.804687-2.695312 3.140626-2.335937 7.878907.804688 10.574219 1.367188 1.171875 2.792969 2.277344 4.246094 3.347657-.691406.511718-1.359375 1.0625-1.976563 1.679687-3.316406 3.320313-5.140625 7.726563-5.132812 12.40625.007812 7.65625-1.761719 13.648437-4.984375 16.875-1.675782 1.675781-3.855469 2.757813-6.613282 3.265625-4.933593-8.953125-16.511718-34.125-13.527343-68.859375.328125-3.847656 1.230469-7.597656 2.644531-11.140625.875 3.289062 1.902344 6.558594 3.113281 9.78125zm-.4375 89.648438c-8.378906 0-15.199219-6.816407-15.199219-15.199219 0-3.890625 1.476563-7.527344 4-10.273438 4.429688 11.167969 8.804688 17.582031 9.207032 18.164063 1.402344 2.015625 3.703125 3.214844 6.15625 3.214844h.066406l.179688 3.421874c-1.417969.429688-2.886719.671876-4.410157.671876zm145.507813 151.394531c-20.609375 13.421875-40.277344 18.890625-45.722656 20.230469-5.410157-1.320313-24.726563-6.664063-45.273438-19.949219-30.027344-19.414063-48.742188-46.191407-55.707031-79.667969 4.015625-.679688 8.132812-1.050781 12.335937-1.050781h11.011719c17.054687 24.6875 45.542969 40.746093 77.640625 40.746093 32.09375 0 60.582031-16.058593 77.636719-40.746093h11.011719c4.203124 0 8.316406.371093 12.328124 1.050781-6.925781 33.304688-25.488281 59.988281-55.261718 79.386719zm89.082031-82.472657c3.042969-2.050781 6.425781-3.546874 9.996094-4.425781v11.519531c-3.160157-2.585937-6.496094-4.957031-9.996094-7.09375zm24.996094 22.761719v-27.191406c13.65625 3.371094 23.8125 15.71875 23.8125 30.402344 0 9-3.800781 17.339843-10.265625 23.191406-3.027344-9.605469-7.644532-18.511719-13.546875-26.402344zm116.914062 155.984375c0 1.515625-.066406 3.015625-.164062 4.507813l-2.601563-4.507813 2.601563-4.507812c.097656 1.492187.164062 2.992187.164062 4.507812zm-13.613281 41.0625h-22.707031l-9.6875-16.78125 9.6875-16.78125h20.566406l10.660156 18.460938c-2.210937 5.410156-5.078125 10.480468-8.519531 15.101562zm-124.128906-41.0625c0-2.328125.121094-4.625.34375-6.890625l3.980468 6.886719-3.980468 6.890625c-.222656-2.265625-.34375-4.5625-.34375-6.886719zm13.617187-41.0625h23.070313l9.6875 16.78125-9.6875 16.78125h-19.371094l-11.5625-20.019531c2.113281-4.824219 4.75-9.367187 7.863281-13.542969zm26.933594-21.691406-3.863281 6.691406h-7.746094c3.625-2.589844 7.507812-4.832031 11.609375-6.691406zm-23.238281 70.253906h19.375l9.6875 16.78125-9.6875 16.78125h-23.070313c-3.113281-4.175781-5.75-8.71875-7.863281-13.542968zm11.628906 48.5625h7.746094l3.863281 6.691406c-4.101563-1.859374-7.984375-4.101562-11.609375-6.691406zm20.734375-56.0625 9.691406-16.78125h19.375l9.6875 16.78125-9.6875 16.78125h-19.375zm51.746094-56.0625-3.734375-6.46875c3.917968 1.8125 7.632812 3.984375 11.113281 6.46875zm0 112.125h7.378906c-3.480469 2.484375-7.195313 4.65625-11.113281 6.46875zm20.566406-63.5625h-20.566406l-9.6875-16.78125 9.6875-16.78125h22.707031c3.441406 4.621094 6.308594 9.691406 8.519531 15.101563zm-45-60.878906 11.441406 19.816406-9.6875 16.78125h-19.375l-9.691406-16.78125 11.46875-19.863281c2.539063-.285156 5.113281-.445313 7.726563-.445313 2.75 0 5.453124.179688 8.117187.492188zm-15.84375 136.804688-11.46875-19.863282 9.691406-16.78125h19.375l9.6875 16.78125-11.441406 19.8125c-2.664063.316406-5.367187.496094-8.117187.496094-2.613282 0-5.1875-.160156-7.726563-.445312zm110.007813-204h-13.8125v-34.398438h13.8125zm-56.886719 33.242187v-100.886719h56.886719v18.246094h-21.3125c-4.144532 0-7.5 3.359375-7.5 7.5v49.398438c0 4.140624 3.355468 7.5 7.5 7.5h21.3125v18.242187zm0 0" data-original="#000000" class="active-path" data-old_color="#000000" fill="#FFFFFF"/><path d="m73.984375 467.558594c-4.140625 0-7.5 3.359375-7.5 7.5v29.4375c0 4.144531 3.359375 7.5 7.5 7.5 4.144531 0 7.503906-3.355469 7.503906-7.5v-29.4375c0-4.140625-3.359375-7.5-7.503906-7.5zm0 0" data-original="#000000" class="active-path" data-old_color="#000000" fill="#FFFFFF"/><path d="m240.609375 379.386719c-13.742187 0-24.921875 11.179687-24.921875 24.921875 0 13.742187 11.179688 24.925781 24.921875 24.925781s24.925781-11.183594 24.925781-24.925781c0-13.742188-11.183594-24.921875-24.925781-24.921875zm0 34.84375c-5.472656 0-9.921875-4.449219-9.921875-9.921875s4.453125-9.921875 9.921875-9.921875c5.472656 0 9.925781 4.453125 9.925781 9.921875 0 5.472656-4.453125 9.921875-9.925781 9.921875zm0 0" data-original="#000000" class="active-path" data-old_color="#000000" fill="#FFFFFF"/><path d="m247.75 448h-137.191406c-4.144532 0-7.5 3.359375-7.5 7.5 0 4.144531 3.355468 7.5 7.5 7.5h137.191406c4.140625 0 7.5-3.355469 7.5-7.5 0-4.140625-3.359375-7.5-7.5-7.5zm0 0" data-original="#000000" class="active-path" data-old_color="#000000" fill="#FFFFFF"/><path d="m136.972656 202.070312c4.140625 0 7.5-3.355468 7.5-7.5v-.097656c0-4.144531-3.359375-7.5-7.5-7.5s-7.5 3.355469-7.5 7.5v.097656c0 4.144532 3.359375 7.5 7.5 7.5zm0 0" data-original="#000000" class="active-path" data-old_color="#000000" fill="#FFFFFF"/><path d="m217.898438 202.070312c4.140624 0 7.5-3.355468 7.5-7.5v-.097656c0-4.144531-3.359376-7.5-7.5-7.5-4.140626 0-7.5 3.355469-7.5 7.5v.097656c0 4.144532 3.359374 7.5 7.5 7.5zm0 0" data-original="#000000" class="active-path" data-old_color="#000000" fill="#FFFFFF"/><path d="m177.4375 252.140625c13.75 0 26.015625-9.234375 29.816406-22.457031 1.144532-3.980469-1.152344-8.132813-5.132812-9.28125-3.980469-1.140625-8.136719 1.15625-9.28125 5.136718-1.964844 6.832032-8.300782 11.605469-15.402344 11.605469s-13.4375-4.773437-15.402344-11.605469c-1.144531-3.980468-5.300781-6.28125-9.28125-5.132812-3.980468 1.144531-6.28125 5.296875-5.136718 9.28125 3.800781 13.21875 16.066406 22.453125 29.820312 22.453125zm0 0" data-original="#000000" class="active-path" data-old_color="#000000" fill="#FFFFFF"/></g> </svg>
