<?xml version="1.0"?>
<svg xmlns="http://www.w3.org/2000/svg" xmlns:xlink="http://www.w3.org/1999/xlink" version="1.1" id="Layer_1" x="0px" y="0px" viewBox="0 0 512 512" style="enable-background:new 0 0 512 512;" xml:space="preserve" width="512px" height="512px"><g><g>
	<g>
		<path d="M0,71.414v87.662v193.848v87.662h109.015v-15.211H15.211v-72.451h92.285V159.077H15.211V86.625h233.242v86.454    c-42.398,3.828-75.737,39.548-75.737,82.926c0,43.377,33.339,79.097,75.737,82.926v86.445H129.299v15.211H512v-87.662V159.077    V71.414H0z M92.285,174.288v163.425H15.211V174.288H92.285z M248.453,323.649c-33.995-3.768-60.526-32.661-60.526-67.644    c0-34.984,26.53-63.876,60.526-67.644V323.649z M263.664,188.376c33.938,3.822,60.407,32.686,60.407,67.628    c0,34.942-26.47,63.807-60.407,67.628V188.376z M496.789,337.714h-77.073V174.288h77.073V337.714z M496.789,159.076h-92.285v0.001    v193.848h92.284v72.451H263.664v-86.455c42.341-3.884,75.618-39.58,75.618-82.917c0-43.338-33.277-79.034-75.618-82.917V86.625    h233.124V159.076z" data-original="#000000" class="active-path" data-old_color="#000000" fill="#09182D"/>
	</g>
</g></g> </svg>
