<?xml version="1.0"?>
<svg xmlns="http://www.w3.org/2000/svg" id="icons" enable-background="new 0 0 64 64" height="512px" viewBox="0 0 64 64" width="512px" class=""><g><path d="m55.5 64c.553 0 1-.447 1-1v-10-52c0-.553-.447-1-1-1h-42c-3.309 0-6 2.691-6 6v52c0 3.309 2.691 6 6 6zm-1-12h-38v-50h38zm-2 2h2v8h-2zm-39-52h1v50h-1c-1.537 0-2.938.586-4 1.54v-47.54c0-2.206 1.794-4 4-4zm-4 56c0-2.206 1.794-4 4-4h37v3.002h-37c-.553 0-1 .447-1 1s.447 1 1 1h37v2.998h-37c-2.206 0-4-1.794-4-4z" data-original="#000000" class="active-path" data-old_color="#000000" fill="#FFFFFF"/><path d="m41.52 37.007h-12.006c-.553 0-1 .447-1 1s.447 1 1 1h12.006c.553 0 1-.447 1-1s-.448-1-1-1z" data-original="#000000" class="active-path" data-old_color="#000000" fill="#FFFFFF"/><path d="m47.52 34.009h-24.008c-.553 0-1 .447-1 1s.447 1 1 1h24.008c.553 0 1-.447 1-1s-.448-1-1-1z" data-original="#000000" class="active-path" data-old_color="#000000" fill="#FFFFFF"/><path d="m30.492 21.994h-1v-1c0-.553-.447-1-1-1s-1 .447-1 1v1h-1c-.553 0-1 .447-1 1s.447 1 1 1h1v1c0 .553.447 1 1 1s1-.447 1-1v-1h1c.553 0 1-.447 1-1s-.447-1-1-1z" data-original="#000000" class="active-path" data-old_color="#000000" fill="#FFFFFF"/><path d="m40.536 23.994c.552 0 1-.447 1-1s-.448-1-1-1h-.011c-.552 0-.994.447-.994 1s.452 1 1.005 1z" data-original="#000000" class="active-path" data-old_color="#000000" fill="#FFFFFF"/><path d="m42.536 21.994c.552 0 1-.447 1-1s-.448-1-1-1h-.011c-.552 0-.994.447-.994 1s.452 1 1.005 1z" data-original="#000000" class="active-path" data-old_color="#000000" fill="#FFFFFF"/><path d="m42.538 23.995h-.011c-.552 0-.994.447-.994 1s.452 1 1.005 1c.552 0 1-.447 1-1s-.448-1-1-1z" data-original="#000000" class="active-path" data-old_color="#000000" fill="#FFFFFF"/><path d="m44.538 23.995c.552 0 1-.447 1-1s-.448-1-1-1h-.011c-.552 0-.994.447-.994 1s.452 1 1.005 1z" data-original="#000000" class="active-path" data-old_color="#000000" fill="#FFFFFF"/><path d="m43.494 11.992c-.002 0-.003.001-.005.001h-5.997c-1.654 0-3 1.346-3 3v.001h-6c-4.411 0-8 3.589-8 8s3.589 8 8 8c2.85 0 5.5-1.551 6.92-4h.16c1.42 2.449 4.07 4 6.92 4 4.411 0 8-3.589 8-8s-3.589-8-8-8h-6v-.001c0-.552.448-1 1-1h6.002c.004 0 .006-.002.01-.002 1.648-.005 2.988-1.347 2.988-2.997s-1.34-2.992-2.988-2.997c-.004 0-.006-.002-.01-.002h-16.002c-.553 0-1 .447-1 1s.447 1 1 1h15.997c.002 0 .003.001.005.001.551 0 .998.447.998.998s-.447.998-.998.998zm4.998 11.002c0 3.309-2.691 6-6 6-2.298 0-4.423-1.347-5.414-3.43-.166-.349-.518-.57-.903-.57h-1.365c-.386 0-.737.222-.903.57-.991 2.083-3.116 3.43-5.414 3.43-3.309 0-6-2.691-6-6s2.691-6 6-6h6.995c.002 0 .003.001.005.001s.003-.001.005-.001h6.995c3.308 0 5.999 2.692 5.999 6z" data-original="#000000" class="active-path" data-old_color="#000000" fill="#FFFFFF"/><path d="m25.205 42.295c-.092-.093-.203-.166-.326-.217-.244-.102-.52-.102-.764 0-.123.051-.234.124-.326.217l-.999.999c-.391.391-.391 1.023 0 1.414.195.195.451.293.707.293v2c0 .553.447 1 1 1s1-.447 1-1v-2c.256 0 .512-.098.707-.293.391-.391.391-1.023 0-1.414z" data-original="#000000" class="active-path" data-old_color="#000000" fill="#FFFFFF"/><path d="m39.505 45.001v-2c0-.553-.447-1-1-1s-1 .447-1 1v2c-.256 0-.512.098-.707.293-.391.391-.391 1.023 0 1.414l.999.999c.092.093.203.166.326.217.122.051.252.077.382.077s.26-.026.382-.077c.123-.051.234-.124.326-.217l.999-.999c.391-.391.391-1.023 0-1.414-.195-.195-.451-.293-.707-.293z" data-original="#000000" class="active-path" data-old_color="#000000" fill="#FFFFFF"/><path d="m34.417 44.619c-.051-.123-.124-.234-.217-.326l-.999-.999c-.391-.391-1.023-.391-1.414 0-.195.195-.293.451-.293.707h-2c-.553 0-1 .447-1 1s.447 1 1 1h2c0 .256.098.512.293.707s.451.293.707.293.512-.098.707-.293l.999-.999c.093-.092.166-.203.217-.326.102-.244.102-.52 0-.764z" data-original="#000000" class="active-path" data-old_color="#000000" fill="#FFFFFF"/><path d="m47.506 44.002h-2c0-.256-.098-.512-.293-.707-.391-.391-1.023-.391-1.414 0l-.999.999c-.093.092-.166.203-.217.326-.102.244-.102.52 0 .764.051.123.124.234.217.326l.999.999c.195.195.451.293.707.293s.512-.098.707-.293.293-.451.293-.707h2c.553 0 1-.447 1-1s-.447-1-1-1z" data-original="#000000" class="active-path" data-old_color="#000000" fill="#FFFFFF"/></g> </svg>
